<svg xmlns="http://www.w3.org/2000/svg" width="256" height="256"><path fill-opacity=".016" d="M0 128.004v128.004l128.25-.254 128.25-.254.254-127.75L257.008 0H0v128.004m.485.496c0 70.4.119 99.053.265 63.672.146-35.38.146-92.98 0-128C.604 29.153.485 58.1.485 128.5" fill="#1976D2" fill-rule="evenodd"/><path fill-opacity=".41" d="M138.966 25.586c-4.077 4.167-11.624 9.256-29.705 20.032C91.52 56.191 84.872 60.661 84.463 62.293c-.308 1.227-.426 5.6-.262 9.719L84.5 79.5l23.25.268c14.36.166 23.25.644 23.25 1.25 0 .621-11.388.982-31 .982H69v109h72v-26.95l-16.25-.275-16.25-.275-.287-9.225-.287-9.225 16.287-.275 16.287-.275.29-9.41c.159-5.176-.125-9.825-.63-10.33-1.359-1.359 9.521-33.228 12.588-36.872 1.377-1.637 4.359-3.916 6.628-5.065 10.75-5.446 14.964-10.948 17.722-23.141 3.064-13.544 4.097-11.714-15.004-26.551C152.796 25.909 145.018 20 144.81 20c-.208 0-2.838 2.514-5.844 5.586m10.508 72.822c-2.733 6.541-2.426 7.69 3.015 11.291 5.842 3.866 6.819 3.993 9.572 1.24 3.583-3.583 2.255-6.815-4.827-11.746l-6.265-4.363-1.495 3.578M108 115v9h4c3.613 0 4-.245 4-2.53 0-1.392 1.125-5.203 2.5-8.47 1.375-3.267 2.5-6.178 2.5-6.47 0-.291-2.925-.53-6.5-.53H108v9m35.979-.436c-1.202 3.61-2.026 6.687-1.832 6.837 1.369 1.061 9.338 3.599 11.302 3.599 3.458 0 5.715-2.676 5.355-6.346-.242-2.464-1.41-3.867-5.725-6.875-2.981-2.078-5.757-3.779-6.168-3.779-.411 0-1.731 2.954-2.932 6.564m-52.188 10.424c-4.19 1.263-8.428 4.679-10.894 8.78-1.234 2.053-2.353 3.881-2.485 4.063-.132.182-1.204-.185-2.382-.815-1.177-.63-2.678-.955-3.335-.721-.657.233.772 1.025 3.176 1.759 3.438 1.05 3.971 1.483 2.5 2.026-1.65.609-1.576.758.629 1.257 4.302.973 14.907 1.322 14.382.473-.275-.446-3.286-.862-6.691-.925-5.117-.095-5.584-.232-2.691-.789 4.586-.884 13-.169 13 1.105 0 .549-1.594 2.593-3.543 4.542-3.968 3.968-11.104 17.057-7.542 13.834 1.105-1 2.533-3.452 3.173-5.448.693-2.164 3.131-5.376 6.037-7.957 2.681-2.38 4.875-4.705 4.875-5.167 0-1.088-8.963-3.005-14.049-3.005-4.675 0-4.887-.79-1.201-4.481 3.51-3.515 6.213-4.519 12.167-4.519 5.962 0 10.846 3.023 13.443 8.32 2.201 4.492 3.357 4.175 1.735-.476-1.522-4.369-4.662-7.546-8.809-8.915-1.881-.62-3.202-1.346-2.936-1.612s2.515.415 4.999 1.513c3.155 1.396 5.152 3.153 6.63 5.834 1.992 3.613 2.079 3.662 1.497.836-1.619-7.85-12.037-12.42-21.685-9.512m-50.07 5.402c-12.994 3.576-16.987 17.503-7.546 26.319 1.301 1.214 5.507 3.621 9.345 5.348 9.506 4.277 11.48 6.256 11.48 11.507 0 5.331-2.32 8.269-7.441 9.423-4.137.933-12.03-.098-15.672-2.047-2.542-1.361-2.757-1.154-3.106 2.998-.253 2.995.074 3.463 3.219 4.621 4.311 1.587 16.871 1.818 20.685.38 4.034-1.521 9.091-6.73 10.408-10.719 1.507-4.567.384-10.906-2.632-14.861-1.346-1.764-5.038-4.416-8.204-5.893a4774.483 4774.483 0 0 0-9.098-4.233c-1.94-.898-4.01-2.949-4.935-4.89-1.465-3.071-1.46-3.624.051-6.794 2.289-4.8 7.54-6.216 15.506-4.184 3.146.802 5.827 1.353 5.959 1.224.131-.129.523-1.655.87-3.391.539-2.693.284-3.287-1.739-4.053-4.593-1.737-12.339-2.078-17.15-.755m162.7.506c-10.091 4.584-12.949 16.676-5.751 24.341 1.556 1.658 6.484 4.71 10.949 6.783 4.466 2.072 8.853 4.816 9.75 6.097 1.853 2.645 2.123 7.096.601 9.938-2.503 4.677-11.559 6.266-19.47 3.416-5.27-1.898-5.145-1.928-6.351 1.53-.975 2.798-.83 3.114 2.153 4.669 1.817.947 6.437 1.852 10.698 2.094 6.762.384 8.03.146 12.885-2.419 6.563-3.467 9.115-7.647 9.115-14.932 0-7.849-2.646-10.99-13.933-16.537-5.176-2.543-10.008-5.442-10.738-6.441-1.406-1.922-1.745-6.187-.708-8.89 1.53-3.986 10.562-5.772 17.306-3.421 3.635 1.268 4.879.535 5.294-3.117.228-2.004-.358-2.673-3.221-3.672-5.25-1.833-13.881-1.572-18.579.561m-60.397 18.797c.027 21.565.766 26.817 4.591 32.636 6.351 9.659 24.847 10.51 33.018 1.518 5.505-6.058 5.845-7.793 6.186-31.597l.318-22.25h-7.965l-.34 21.25c-.294 18.345-.598 21.769-2.221 25.044-2.26 4.559-6.334 6.873-12.103 6.873-5.446 0-8.144-1.667-10.794-6.667-1.929-3.639-2.149-5.893-2.446-25l-.327-21-3.97-.307-3.971-.308.024 19.808m-45.399-5.158c-.434 1.13.002 1.816 1.382 2.177 1.139.298 2.268 1.671 2.597 3.157.32 1.447.791 3.404 1.046 4.348.532 1.969-3.161 3.301-7.077 2.552-1.675-.32-2.241-.067-1.891.844.274.716-1.818 3.619-4.651 6.451-7.298 7.298-5.411 7.426 2.176.147 4.279-4.104 7.253-6.144 9.293-6.374 2.767-.311 3.007-.652 3.092-4.396.068-3.035-.593-4.877-2.621-7.307-2.248-2.693-2.821-2.967-3.346-1.599m-12.356.158c.973.254 2.323.237 3-.037.677-.274-.119-.481-1.769-.461-1.65.02-2.204.244-1.231.498m-5.064 4.726c-1.816 2.069-3.29 5.13-3.731 7.75-.401 2.382-2.043 6.243-3.65 8.581-1.606 2.338-2.455 4.25-1.886 4.25 1.577 0 5.686-6.8 8.158-13.5 1.217-3.3 2.87-7.012 3.673-8.25 2.158-3.324.862-2.733-2.564 1.169m5.529-1.669c-.867.963-2.515 4.225-3.663 7.25-1.147 3.025-2.596 6.4-3.22 7.5-1.113 1.963-1.096 1.966.966.132 1.155-1.027 2.845-4.177 3.755-7 .91-2.822 2.289-6.144 3.064-7.382 1.686-2.69 1.275-2.917-.902-.5m7.291 22.225c-2.402 2.402-2.601 5.757-.518 8.731 1.231 1.758 2.511 2.151 7 2.151H106v-5.928c0-4.039-.399-5.952-1.25-6-.687-.039-2.926-.276-4.975-.526-2.818-.343-4.217.039-5.75 1.572m15.884-1.201c-1.322.259-1.541 1.615-1.294 8.019.264 6.875.517 7.742 2.341 8.027 1.586.247 2.044-.226 2.044-2.112 0-2.062.384-2.357 2.535-1.946 3.492.668 6.465-2.227 6.465-6.295 0-1.772-.731-3.828-1.624-4.57-1.517-1.259-6.847-1.831-10.467-1.123m15.841.031c-1.491.291-1.75 1.516-1.75 8.268 0 7.789.044 7.927 2.5 7.927 1.961 0 2.5-.509 2.5-2.361 0-1.989.401-2.285 2.535-1.877 5.151.985 8.434-5.687 5.066-10.293-1.339-1.831-6.19-2.575-10.851-1.664m-28.459 4.304c-1.585 1.585-.467 3.891 1.886 3.891 1.445 0 1.878-.572 1.643-2.172-.377-2.556-1.934-3.314-3.529-1.719m16.121.26c-.751 1.956.272 3.631 2.217 3.631.981 0 1.398-.76 1.191-2.172-.388-2.637-2.594-3.581-3.408-1.459m16.276-.723c-1.541 1.54-.648 4.354 1.382 4.354 1.555 0 1.99-.539 1.75-2.172-.332-2.255-1.94-3.375-3.132-2.182M90 206.861c0 2.515-.304 2.804-2.506 2.383-3.425-.655-5.494 1.35-5.494 5.322 0 3.833 3.257 6.878 5.905 5.522.877-.45 2.158-.616 2.845-.37.934.335 1.25-1.596 1.25-7.635 0-4.722-.416-8.083-1-8.083-.55 0-1 1.288-1 2.861m23 0c0 2.515-.304 2.804-2.506 2.383-3.425-.655-5.494 1.35-5.494 5.322 0 3.833 3.257 6.878 5.905 5.522.877-.45 2.158-.616 2.845-.37.934.335 1.25-1.596 1.25-7.635 0-4.722-.416-8.083-1-8.083-.55 0-1 1.288-1 2.861m17 0c0 2.515-.304 2.804-2.506 2.383-3.425-.655-5.494 1.35-5.494 5.322 0 3.833 3.257 6.878 5.905 5.522.877-.45 2.158-.616 2.845-.37.934.335 1.25-1.596 1.25-7.635 0-4.722-.416-8.083-1-8.083-.55 0-1 1.288-1 2.861M161 212c0 6.444.292 8 1.5 8s1.5-1.556 1.5-8-.292-8-1.5-8-1.5 1.556-1.5 8m31.417-6.645c-1.003 2.614.049 13.975 1.333 14.399.931.307 1.25-1.651 1.25-7.671 0-4.886-.408-8.083-1.031-8.083-.568 0-1.266.61-1.552 1.355M226 206.778c0 2.549-.315 2.884-2.342 2.497-3.047-.583-5.658 2.066-5.658 5.74 0 3.741 2.857 5.717 7.485 5.177l3.595-.42-.29-7.556c-.19-4.937-.723-7.699-1.54-7.969-.811-.268-1.25.621-1.25 2.531m-217 4.6c0 4.454.453 6.753 1.503 7.625 2.204 1.829 6.641 1.52 8.169-.569C20.216 216.323 20.492 205 19 205c-.55 0-1.006 1.912-1.014 4.25-.021 6.559-.896 8.75-3.496 8.75-2.769 0-3.49-1.669-3.49-8.082 0-2.705-.45-4.918-1-4.918-.562 0-1 2.793-1 6.378m26-4.878c0 .917.484 1.505 1.075 1.308.591-.197 1.075-.786 1.075-1.308s-.484-1.111-1.075-1.308c-.591-.197-1.075.391-1.075 1.308m42.229-.312c.618 1.854 2.771 2.161 2.771.395 0-.87-.713-1.583-1.583-1.583-.871 0-1.406.534-1.188 1.188m73.438-.521c-.367.366-.667 3.741-.667 7.5V220h4.5c2.475 0 4.5-.45 4.5-1s-1.35-1-3-1c-2.533 0-3-.389-3-2.5 0-2.111.467-2.5 3-2.5 1.65 0 3-.45 3-1s-1.35-1-3-1c-2.333 0-3-.444-3-2s.667-2 3-2c1.65 0 3-.45 3-1 0-1.104-7.271-1.395-8.333-.333m21.533.533c-2.067 2.067-1.317 4.826 1.794 6.597 4.02 2.287 4.023 5.203.006 5.203-3.343 0-4.056 1.491-1.084 2.268 2.782.727 6.533-1.466 6.903-4.036.238-1.657-.595-2.757-3.292-4.349-4.079-2.406-4.156-4.231-.2-4.699 1.47-.174 2.673-.737 2.673-1.25 0-1.357-5.388-1.146-6.8.266M23 214.606c0 2.966.45 5.394 1 5.394s1.007-1.463 1.015-3.25c.02-4.116 1.329-6.216 3.384-5.427 1.102.423 1.601 1.872 1.601 4.646 0 2.217.474 4.031 1.052 4.031.641 0 .934-2.051.75-5.25l-.302-5.25-4.25-.144-4.25-.145v5.395m12-.106c0 3.764.379 5.54 1.129 5.29 1.574-.524 1.665-10.025.1-10.547-.876-.292-1.229 1.219-1.229 5.257m4.552-3.25c1.553 5.083 3.41 8.75 4.433 8.75C45.02 220 49 211.934 49 209.834c0-2.216-2.437.005-3.541 3.226l-1.179 3.44-1.589-3.75c-1.726-4.073-4.3-5.304-3.139-1.5m11.502-.815c-.655.789-1.047 2.916-.872 4.727.349 3.618 3.547 5.983 6.902 5.106 2.954-.773 2.271-2.106-1.257-2.455-4.95-.489-4.821-2.813.157-2.813 3.846 0 4.099-.165 3.449-2.25-.387-1.238-1.204-2.581-1.818-2.985-1.841-1.212-5.291-.86-6.561.67M61 214.667c0 4.074.354 5.333 1.5 5.333 1.085 0 1.5-1.115 1.5-4.031 0-2.661.51-4.227 1.5-4.607 2.487-.955 1.692-2.029-1.5-2.029-2.958 0-3 .074-3 5.334m8.2-4.467c-1.895 1.895-1.411 3.747 1.3 4.982 1.375.626 2.5 1.517 2.5 1.979 0 .461-1.125.839-2.5.839-2.913 0-3.353 1.544-.642 2.253 4.471 1.169 7.128-4.12 3.142-6.253-1.1-.589-2-1.505-2-2.035 0-.531.9-.965 2-.965s2-.45 2-1c0-1.401-4.349-1.251-5.8.2m7.8 4.3c0 4.222.348 5.5 1.5 5.5 1.152 0 1.5-1.278 1.5-5.5 0-4.222-.348-5.5-1.5-5.5-1.152 0-1.5 1.278-1.5 5.5m18-4.5c0 .55 1.125 1 2.5 1 3.394 0 3.15 1.316-.5 2.694-5.622 2.122-3.138 7.42 3.052 6.512 2.726-.4 2.948-.749 2.948-4.619 0-2.303-.54-4.727-1.2-5.387-1.449-1.449-6.8-1.607-6.8-.2m40.655.829c-4.011 4.431-.823 9.724 5.595 9.289 3.027-.204 1.898-2.118-1.25-2.118-2 0-3-.5-3-1.5 0-1.048 1.056-1.5 3.5-1.5 3.666 0 4.184-.854 2.465-4.066-1.307-2.442-5.145-2.497-7.31-.105M182.5 210c-.351.567.49 1 1.941 1 3.447 0 3.233 1.307-.441 2.694-5.622 2.122-3.138 7.42 3.052 6.512 2.726-.4 2.948-.749 2.948-4.619 0-2.303-.54-4.727-1.2-5.387-1.456-1.456-5.446-1.582-6.3-.2m14.5-.178c0 .452.725 2.95 1.612 5.552 2.05 6.018 3.975 5.759 6.491-.874 2.269-5.986 2.234-5.5.397-5.5-.825 0-1.5.421-1.5.935s-.491 2.202-1.091 3.75l-1.09 2.815-1.517-3.75c-1.356-3.355-3.302-5.08-3.302-2.928m11.5.178c-.349.565.47 1 1.882 1 3.589 0 4.106 1.652.728 2.328-2.993.599-4.426 2.684-3.501 5.095.733 1.91 2.471 2.476 5.704 1.857 2.355-.45 2.687-.983 2.687-4.315 0-2.091-.273-4.513-.607-5.383-.674-1.757-5.895-2.197-6.893-.582m22.881 1.541c-3.087 4.712 1.736 10.574 6.682 8.121 2.769-1.372 3.88-6.82 1.883-9.227-1.976-2.38-6.678-1.773-8.565 1.106M243 214.652c0 4.087.354 5.348 1.5 5.348 1.085 0 1.5-1.115 1.5-4.031 0-2.661.51-4.227 1.5-4.607 2.541-.976 1.661-2.233-1.5-2.143-2.949.084-3 .177-3 5.433M52.5 212c-.352.569.509 1 2 1s2.352-.431 2-1c-.34-.55-1.24-1-2-1s-1.66.45-2 1m32.045.859c-.844 2.659.364 5.141 2.503 5.141 2.418 0 3.28-1.556 2.527-4.557-.735-2.929-4.16-3.327-5.03-.584m22.88.584c-.753 3.001.109 4.557 2.527 4.557 2.139 0 3.347-2.482 2.503-5.141-.87-2.743-4.295-2.345-5.03.584m17.12-.584c-.837 2.638.358 5.141 2.455 5.141.982 0 2.069-.738 2.416-1.641.96-2.502-.328-5.359-2.416-5.359-1.026 0-2.131.837-2.455 1.859M137 212c0 .55.9 1 2 1s2-.45 2-1-.9-1-2-1-2 .45-2 1m84.701-.368c-.385.386-.701 2.008-.701 3.604 0 2.439.36 2.852 2.25 2.584 1.76-.25 2.25-.971 2.25-3.306 0-2.883-2.16-4.521-3.799-2.882m11.683.81c-.976 2.543.075 5.049 2.249 5.361 2.38.341 3.742-2.046 2.822-4.944-.696-2.195-4.276-2.49-5.071-.417M97 216.5c0 .825.675 1.5 1.5 1.5s1.5-.675 1.5-1.5-.675-1.5-1.5-1.5-1.5.675-1.5 1.5m87 .073c0 .932.68 1.442 1.667 1.25 2.509-.486 2.853-2.823.416-2.823-1.228 0-2.083.646-2.083 1.573m26.459-.506c-.363.586-.409 1.317-.102 1.623.822.823 3.643-.461 3.643-1.659 0-1.357-2.697-1.33-3.541.036" fill="#1976D2" fill-rule="evenodd"/><path fill-opacity=".189" d="M139.337 25.601c-4.008 4.601-9.096 8.11-29.343 20.233L85.5 60.5l-.288 9.25-.287 9.25h23.644c22.131 0 23.598.112 22.913 1.75-.403.963-1.556 4.225-2.562 7.25-1.007 3.025-3.925 10.45-6.484 16.5-7.216 17.057-7.581 25.211-1.281 28.583 3.294 1.763 9.671.457 12.908-2.643 2.76-2.644 9.394-18.865 13.293-32.503 2.271-7.939 5.331-11.896 12.162-15.723 11.497-6.442 14.506-10.712 17.42-24.717l2.08-9.997-3.703-3.274c-2.037-1.8-9.874-7.98-17.416-13.732l-13.713-10.459-4.849 5.566m10.15 73.777c-2.283 5.464-1.873 6.876 2.87 9.872 6.618 4.181 10.643 3.32 10.643-2.276 0-2.841-2.332-5.353-8.263-8.902l-3.764-2.252-1.486 3.558m-5.154 15.582-2.167 5.958 5.403 2.022c7.438 2.783 10.431 1.689 10.431-3.811 0-3.593-.405-4.18-4.838-7.025-2.66-1.707-5.248-3.104-5.75-3.103-.501 0-1.887 2.682-3.079 5.959m63.661 14.915C199.26 132.738 195 137.77 195 145.22c0 6.924 3.005 10.547 12.682 15.292 10.772 5.282 13.318 7.717 13.318 12.739 0 2.98-.691 4.594-2.923 6.826-2.593 2.593-3.613 2.923-9.032 2.923-3.36 0-7.739-.681-9.731-1.513-1.991-.832-3.772-1.362-3.957-1.177-.185.185-.61 1.706-.945 3.381-.552 2.757-.299 3.153 2.677 4.19 16.553 5.771 31.911-1.687 31.911-15.496 0-6.983-4.107-11.743-14.02-16.246-9.788-4.446-11.98-6.506-11.98-11.257 0-2.931.673-4.645 2.564-6.537 2.358-2.358 3.1-2.527 9.25-2.108 3.677.251 7.42.778 8.317 1.171 1.214.532 1.893-.037 2.657-2.229.923-2.647.773-3.058-1.486-4.087-3.327-1.516-13.159-2.25-16.308-1.217m-169.723 2.089c-2.442 1.108-5.083 3.318-6.247 5.228-6.297 10.323-1.775 19.665 12.013 24.822 7.608 2.845 11.418 6.831 11.418 11.948 0 4.621-2.267 7.491-7.201 9.119-4.049 1.336-10.989.624-15.214-1.561-3.128-1.617-3.425-1.442-4.383 2.578-.512 2.149-.146 2.821 2.112 3.883 4.686 2.204 16.623 2.523 21.712.579 10.978-4.192 14.539-17.607 6.849-25.797-1.556-1.658-6.484-4.71-10.949-6.783C39.994 152.088 37 149.255 37 145.212c0-7.544 8.649-11.211 18.312-7.765 3.688 1.316 3.841 1.28 4.75-1.109 1.39-3.657 1.228-4.041-2.211-5.24-4.992-1.74-14.794-1.307-19.58.866m106.083-.444c-.321.836-.396 10.623-.167 21.75.458 22.315 1.406 26.374 7.433 31.844 7.322 6.645 21.146 6.542 28.842-.215 6.149-5.399 7.038-9.617 7.038-33.399v-21h-7L180 152c-.42 18.046-.785 22.021-2.271 24.741-5.021 9.188-17.922 9.332-23.195.259-1.842-3.17-2.066-5.548-2.369-25.25l-.334-21.75h-3.447c-2.161 0-3.664.567-4.03 1.52M90 206.861c0 2.462-.327 2.799-2.342 2.414-3.028-.579-5.658 2.059-5.658 5.674 0 3.655 1.794 5.035 6.324 4.865l3.676-.138v-7.838c0-4.559-.418-7.838-1-7.838-.55 0-1 1.288-1 2.861m23 0c0 2.462-.327 2.799-2.342 2.414-3.028-.579-5.658 2.059-5.658 5.674 0 3.655 1.794 5.035 6.324 4.865l3.676-.138v-7.838c0-4.559-.418-7.838-1-7.838-.55 0-1 1.288-1 2.861m17 0c0 2.462-.327 2.799-2.342 2.414-3.028-.579-5.658 2.059-5.658 5.674 0 3.655 1.794 5.035 6.324 4.865l3.676-.138v-7.838c0-4.559-.418-7.838-1-7.838-.55 0-1 1.288-1 2.861m31.668-2.127c-.259.421-.403 3.916-.32 7.766.196 9.041 2.103 8.407 2.289-.761.124-6.097-.708-9.059-1.969-7.005M193 212c0 4.667.417 8 1 8s1-3.333 1-8-.417-8-1-8-1 3.333-1 8m33.667-7.333c-.367.366-.667 1.654-.667 2.861 0 1.78-.455 2.108-2.412 1.734-3.399-.65-6.313 3.78-4.976 7.565.818 2.317 1.506 2.678 5.166 2.708l4.222.036v-7.786c0-7.812-.101-8.351-1.333-7.118M9 210.566C9 217.61 10.236 220 13.88 220c4.312 0 6.12-2.756 6.12-9.329 0-3.119-.45-5.671-1-5.671s-1 2.443-1 5.429c0 3.601-.529 5.957-1.571 7-3.346 3.345-5.429.802-5.429-6.629 0-3.2-.448-5.8-1-5.8-.55 0-1 2.505-1 5.566m26-4.625c0 .518.45 1.219 1 1.559.55.34 1-.084 1-.941S36.55 205 36 205s-1 .423-1 .941m42.553-.026a1.116 1.116 0 0 0 .362 1.532c.521.322 1.21.159 1.532-.362a1.116 1.116 0 0 0-.362-1.532 1.116 1.116 0 0 0-1.532.362M151 212.5v7.5h4c2.2 0 4-.45 4-1s-1.35-1-3-1c-2.533 0-3-.389-3-2.5 0-2.122.463-2.5 3.059-2.5 1.785 0 2.802-.417 2.441-1-.34-.55-1.716-1-3.059-1-1.774 0-2.441-.546-2.441-2 0-1.556.667-2 3-2 1.65 0 3-.45 3-1s-1.8-1-4-1h-4v7.5m21.04-6.048c-1.714 2.065-.912 4.804 1.803 6.157 4.089 2.038 4.872 3.367 2.861 4.853-.989.729-2.676 1.097-3.75.816-1.077-.282-1.954-.01-1.954.605s1.559 1.117 3.465 1.117c6.145 0 7.076-5.635 1.414-8.563-3.853-1.992-3.786-4.437.121-4.437 1.65 0 3-.45 3-1 0-1.545-5.605-1.181-6.96.452M23 214.652c0 6.341 1.75 7.217 2.193 1.098.251-3.481.669-4.25 2.307-4.25s2.056.769 2.307 4.25c.406 5.598 2.193 5.494 2.193-.128 0-5.082-1.311-6.536-5.779-6.409-3.215.091-3.221.101-3.221 5.439m12-.152c0 3.025.45 5.5 1 5.5s1-2.475 1-5.5-.45-5.5-1-5.5-1 2.475-1 5.5m4.001-5.25c.005 1.501 4.033 10.261 4.842 10.531.985.328 2.907-3.268 4.605-8.618 1.31-4.126-1.284-2.156-2.748 2.087-.955 2.767-1.672 3.727-2.054 2.75a264.307 264.307 0 0 1-1.592-4.25c-.552-1.512-1.466-2.75-2.029-2.75-.564 0-1.025.113-1.024.25m12.654 1.579c-1.936 2.139-2.171 6.255-.455 7.971 1.419 1.419 8.193 1.644 7.327.244-.325-.526-1.257-.701-2.072-.388-1.532.588-4.455-1.235-4.455-2.778 0-.483 1.575-.878 3.5-.878 2.704 0 3.5-.41 3.5-1.8 0-4.074-4.492-5.524-7.345-2.371m10.346 3.921C62 217.637 62.45 220 63 220s1-1.814 1-4.031c0-2.661.51-4.227 1.5-4.607 2.372-.91 1.747-2.165-.999-2.006-2.33.134-2.5.5-2.5 5.394m7.041-3.828c-.841 1.571-.546 2.273 1.617 3.848 2.921 2.128 2.404 4.702-.743 3.703-1.117-.354-1.916-.136-1.916.523 0 .673 1.315 1.004 3.25.817 4.331-.417 5.169-4.209 1.318-5.964-3.288-1.498-3.292-2.849-.009-2.849 1.451 0 2.292-.433 1.941-1-1.037-1.678-4.368-1.115-5.458.922M78 214.441c0 3.057.45 5.559 1 5.559s1-2.223 1-4.941-.45-5.219-1-5.559c-.621-.384-1 1.49-1 4.941M95.5 210c-.349.565.47 1 1.882 1 3.589 0 4.106 1.652.728 2.328-3.022.604-4.425 2.688-3.476 5.161.386 1.007 1.833 1.439 4.469 1.336 3.736-.147 3.897-.294 3.897-3.555 0-1.871-.466-4.272-1.035-5.336-1.09-2.036-5.399-2.659-6.465-.934m40.057 1.223c-1.982 2.829-1.977 5.214.014 7.206 1.789 1.788 7.429 2.141 7.429.464 0-.609-.708-.835-1.572-.504-1.773.681-5.428-.952-5.428-2.424 0-.531 1.8-.965 4-.965 4.359 0 5.244-1.614 2.429-4.429-2.219-2.218-5.05-1.95-6.872.652M182.5 210c-.349.565.47 1 1.882 1 1.375 0 2.778.45 3.118 1 .34.55-.034 1-.83 1-2.56 0-5.85 3.367-5.129 5.248.489 1.272 1.696 1.689 4.562 1.577 3.736-.147 3.897-.294 3.897-3.555 0-1.871-.466-4.272-1.035-5.336-1.09-2.036-5.399-2.659-6.465-.934m14.5-.083c0 1.83 3.952 10.083 4.829 10.083 1.194 0 4.465-8.656 3.873-10.251-.255-.687-.981.101-1.612 1.751a880.106 880.106 0 0 1-1.736 4.5c-.382.977-1.099.017-2.054-2.75-1.303-3.775-3.3-5.792-3.3-3.333m11.5.083c-.361.583.656 1 2.441 1 3.923 0 3.914 1.239-.018 2.723-2.398.905-3.005 1.671-2.75 3.469.27 1.909.976 2.334 4.077 2.458l3.75.15v-4.2c0-2.31-.54-4.74-1.2-5.4-1.456-1.456-5.446-1.582-6.3-.2m24.25.08c-2.037 1.186-2.395 6.875-.55 8.72 1.901 1.901 6.592 1.458 7.765-.734 3.121-5.832-1.718-11.188-7.215-7.986m10.669-.163c-.894.889-.364 10.083.581 10.083.55 0 1-1.35 1-3 0-1.667.889-3.889 2-5 1.1-1.1 2-2.177 2-2.394 0-.514-5.035-.233-5.581.311m-190.752 1.75c-1.36 1.359-.595 2.333 1.833 2.333 1.556 0 2.5-.567 2.5-1.5 0-1.5-3.075-2.091-4.333-.833m32.042-.043c-1.241 1.241-.763 5.086.791 6.376 2.138 1.774 4.692-.55 4.301-3.914-.296-2.541-3.476-4.078-5.092-2.462m23 0c-1.241 1.241-.763 5.086.791 6.376 2.138 1.774 4.692-.55 4.301-3.914-.296-2.541-3.476-4.078-5.092-2.462m17 0c-1.241 1.241-.763 5.086.791 6.376 2.138 1.774 4.692-.55 4.301-3.914-.296-2.541-3.476-4.078-5.092-2.462m11.787.383c-.795 1.285 2.014 2.395 4.067 1.607.86-.33 1.284-1.053.941-1.607-.805-1.303-4.203-1.303-5.008 0m84.131.522c-.927 2.416-.787 3.168.902 4.857 2.362 2.362 4.631.895 4.275-2.764-.224-2.299-.863-3.202-2.427-3.425-1.252-.179-2.38.368-2.75 1.332m13.082-.905c-1.241 1.241-.763 5.086.791 6.376 2.138 1.774 4.692-.55 4.301-3.914-.296-2.541-3.476-4.078-5.092-2.462m-137.263 4.463c-1.147 1.856 1.252 3.408 3.012 1.948.848-.704 1.542-1.675 1.542-2.157 0-1.259-3.753-1.086-4.554.209m87 0c-1.147 1.856 1.252 3.408 3.012 1.948.848-.704 1.542-1.675 1.542-2.157 0-1.259-3.753-1.086-4.554.209m26.554.246c0 1.881.962 2.619 2.598 1.991 2.127-.816 1.676-3.324-.598-3.324-1.1 0-2 .6-2 1.333" fill="#1976D2" fill-rule="evenodd"/><path fill-opacity=".983" d="M40.464 131.265C33.189 134.225 30 138.518 30 145.354c0 7.831 2.563 10.906 13.392 16.069 5.064 2.414 9.788 5.089 10.498 5.944.709.855 1.525 3.308 1.813 5.452.442 3.299.073 4.4-2.4 7.168-2.393 2.678-3.848 3.359-8.036 3.761-3.273.315-6.808-.085-9.816-1.11-5.327-1.815-6.451-1.501-6.451 1.8s4.871 5.062 14 5.062c12.79 0 19.045-4.82 19.774-15.237.579-8.275-1.875-11.569-12.592-16.903C39.398 151.993 37 149.729 37 144.915c0-2.977.651-4.285 3.2-6.43 2.912-2.45 3.744-2.645 9.25-2.165 3.328.29 6.888.674 7.912.854 1.189.208 2.168-.48 2.712-1.909.676-1.777.405-2.473-1.324-3.399-3.137-1.679-14.701-2.059-18.286-.601m163.986.092c-3.633 1.642-8.205 6.82-9.072 10.274-1.904 7.586 2.153 14.127 11.42 18.411 10.875 5.027 11.407 5.342 12.902 7.622 1.828 2.791 1.97 7.715.312 10.814-2.842 5.309-13.766 6.769-21.342 2.851-3.271-1.691-3.17-1.74-4.058 1.96-.601 2.504-.301 2.943 2.942 4.298 5.313 2.22 16.346 1.993 21.868-.449 10.281-4.548 12.661-18.683 4.327-25.696-1.768-1.487-6.403-4.157-10.299-5.933-10.703-4.878-13.851-10.187-9.396-15.85 3.631-4.616 11.177-5.493 19.073-2.215 2.012.835 3.605-4.112 1.879-5.839-1.696-1.697-16.943-1.881-20.556-.248m-59.45 19.7c0 23.219.78 27.578 5.897 32.952 8.884 9.329 26.837 7.147 33.09-4.022 2.422-4.324 2.531-5.294 3.013-26.739l.5-22.251-3.75.001L180 131v20.532c0 22.25-.488 24.888-5.452 29.468-3.607 3.328-13.087 3.614-16.584.5-5.173-4.606-5.918-8.401-5.942-30.25L152 131h-7v20.057M9 210.729c0 4.324.478 6.607 1.626 7.754 2.314 2.314 6.567 1.534 8.086-1.483 1.506-2.991 1.697-10.629.288-11.5-.624-.386-1 1.615-1 5.319 0 4.196-.464 6.321-1.584 7.251-2.814 2.335-4.878-.104-5.223-6.173C10.75 204.115 9 203.183 9 210.729M35.5 206c-.34.55-.141 1 .441 1S37 206.55 37 206s-.198-1-.441-1-.719.45-1.059 1m42.5 0c0 .55.477 1 1.059 1s.781-.45.441-1-.816-1-1.059-1-.441.45-.441 1m12 1.519c0 2.156-.344 2.433-2.387 1.92-1.779-.446-2.799-.012-4 1.703-3.323 4.744-.864 9.016 4.951 8.602l3.432-.244.002-7.25c.001-4.168-.423-7.25-.998-7.25-.55 0-1 1.134-1 2.519m23 .048c0 2.142-.343 2.459-2.072 1.91-2.631-.835-5.928 2.005-5.928 5.107 0 3.389 2.611 5.442 6.564 5.16l3.432-.244.002-7.25c.001-4.168-.423-7.25-.998-7.25-.55 0-1 1.155-1 2.567m17-.048c0 2.156-.344 2.433-2.387 1.92-1.779-.446-2.799-.012-4 1.703-3.323 4.744-.864 9.016 4.951 8.602l3.432-.244.002-7.25c.001-4.168-.423-7.25-.998-7.25-.55 0-1 1.134-1 2.519m21 4.981v7.5l4.25-.132 4.25-.131-3.5-.619c-2.889-.51-3.555-1.098-3.816-3.368-.287-2.492-.006-2.761 3-2.868l3.316-.119-3-.638c-2.1-.446-3.096-1.311-3.32-2.881-.271-1.907.142-2.244 2.75-2.244 1.689 0 3.07-.45 3.07-1s-1.575-1-3.5-1H151v7.5m11.343 0c.003 4.4.179 6.076.39 3.724.212-2.352.209-5.952-.006-8s-.388-.124-.384 4.276m10.228-5.929c-2.542 2.543-2.372 2.908 3.397 7.315 2.163 1.652 2.295 2.092 1.074 3.564-.931 1.121-2.193 1.478-3.802 1.074-1.541-.387-2.176-.23-1.765.436.354.572 1.651 1.04 2.884 1.04 5.249 0 6.479-5.996 1.641-8-4.788-1.983-3.165-7.152 1.664-5.299 1.119.43 1.427.256.941-.531-1.025-1.659-4.183-1.449-6.034.401M193 212.559c0 4.785.367 7.332 1 6.941.55-.34 1-3.741 1-7.559 0-3.961-.429-6.941-1-6.941-.578 0-1 3.186-1 7.559m33.785-4.904c.453 2.368.259 2.59-1.8 2.051-3.644-.953-5.985.888-5.985 4.707 0 4.095 1.654 5.604 5.819 5.311l3.177-.224.002-7.25c.001-3.988-.386-7.25-.859-7.25-.474 0-.633 1.195-.354 2.655m-200.258 2.301c-.325.526-1.252.703-2.059.393-1.173-.45-1.468.465-1.468 4.544 0 6.162 1.759 6.849 2.193.857.255-3.533.687-4.304 2.557-4.57 2.012-.285 2.25.104 2.25 3.691 0 2.206.45 4.289 1 4.629.61.377 1-1.145 1-3.906 0-3.449-.46-4.77-1.934-5.559-2.385-1.276-2.793-1.285-3.539-.079m9.14-.289c-1.051 1.051-.777 9.147.333 9.833.621.384 1-1.49 1-4.941 0-5.62-.13-6.096-1.333-4.892m15.89 1.556c-3.037 4.335-.817 8.858 4.264 8.687 2.554-.086 2.527-.134-.571-1.029-4.476-1.292-4.309-3.881.25-3.881 2.812 0 3.5-.386 3.5-1.965 0-1.849-2.642-4.035-4.878-4.035-.555 0-1.709 1-2.565 2.223m12.933-1.207c-.346.559-1.047.758-1.559.441-.537-.332-.86 1.67-.763 4.734.138 4.366.238 4.637.562 1.529.245-2.346 1.13-4.24 2.332-4.991 1.066-.666 1.938-1.552 1.938-1.97 0-1.109-1.778-.927-2.51.257m5.76-.354c-1.944.785-1.471 4.149.75 5.338 2.674 1.431 2.539 3.757-.25 4.294-2.155.415-2.16.439-.122.57 1.17.075 2.731-.592 3.47-1.482 1.16-1.398.955-1.928-1.505-3.889-2.824-2.252-2.818-5.177.008-4.093.77.296 1.399.101 1.399-.431 0-1.02-1.649-1.155-3.75-.307m8.06 4.838c.005 3.3.192 4.529.415 2.732.222-1.797.218-4.497-.01-6-.229-1.503-.411-.032-.405 3.268M96 210.11c-1.266.91-1.227.991.25.516 1.97-.634 4.75.176 4.75 1.383 0 .438-1.383 1.277-3.073 1.867-2.396.835-3.002 1.573-2.75 3.347.257 1.81.99 2.298 3.573 2.377 3.161.097 3.25-.014 3.25-4.05 0-5.74-2.47-7.98-6-5.44m40.75-.03c-2.037 1.186-2.395 6.875-.55 8.72.66.66 2.573 1.139 4.25 1.064 2.729-.122 2.787-.185.55-.596-5.561-1.022-6.701-4.268-1.5-4.268 2.704 0 3.5-.41 3.5-1.8 0-2.001-1.833-4.216-3.45-4.17-.578.017-1.837.489-2.8 1.05m46.655.075c-.421.68-.277.884.35.496 1.24-.766 4.245.195 4.245 1.358 0 .438-1.383 1.277-3.073 1.867-2.396.835-3.002 1.573-2.75 3.347.263 1.855.992 2.304 3.93 2.424l3.608.147-.343-4.579c-.329-4.388-1.494-6.167-4.063-6.2-.655-.008-1.512.505-1.904 1.14m20.12 3.419-1.869 4.894-1.411-4.234c-.777-2.329-1.821-4.234-2.32-4.234-.928 0 1.704 7.747 3.203 9.428.93 1.042 5.222-7.878 4.636-9.635-.204-.612-1.211 1.09-2.239 3.781m6.084-3.75c-.28.453.435.791 1.59.75 3.343-.118 3.191 2.094-.227 3.286-2.439.85-3.048 1.583-2.795 3.363.269 1.9.944 2.282 4.073 2.309 3.665.032 3.75-.051 3.75-3.678 0-3.771-2.03-6.854-4.512-6.854-.754 0-1.599.371-1.879.824m23.046 1.005c-2.086 2.304-2.122 5.562-.084 7.6 2.088 2.087 4.743 1.987 6.774-.258 2.199-2.43 2.088-4.738-.345-7.171-2.483-2.483-4.211-2.53-6.345-.171m13.876-.879c-.368.595-1.088.824-1.6.507-.535-.331-.878 1.681-.806 4.734l.125 5.309.704-4.335c.387-2.384 1.33-4.722 2.096-5.196.765-.473 1.113-1.14.771-1.481-.341-.342-.922-.134-1.29.462M40 210.263c0 1.515 3.345 9.737 3.961 9.737.425 0 1.707-2.25 2.85-5s1.688-5 1.211-5c-.477 0-1.387 1.575-2.022 3.5-1.415 4.288-2.629 4.466-3.497.511-.361-1.643-1.072-3.245-1.58-3.559-.508-.313-.923-.399-.923-.189m13.2.937c-1.833 1.833-1.442 2.8 1.133 2.8 3.01 0 3.936-.971 2.536-2.658-1.373-1.654-2.127-1.684-3.669-.142m32.539-.074c-2.158 1.208-2.331 6.433-.239 7.236 2.569.986 4.5-.45 4.5-3.347 0-3.49-1.89-5.216-4.261-3.889m22.461.074c-3.187 3.187.045 9.501 3.427 6.695 2.351-1.952 1.127-7.895-1.627-7.895-.33 0-1.14.54-1.8 1.2m17.539-.074c-2.158 1.208-2.331 6.433-.239 7.236 2.569.986 4.5-.45 4.5-3.347 0-3.49-1.89-5.216-4.261-3.889m11.461.074c-1.945 1.945-1.396 2.8 1.8 2.8 1.65 0 3-.36 3-.8 0-.934-2.125-3.2-3-3.2-.33 0-1.14.54-1.8 1.2m84.49-.046c-3.073 1.719-1.531 7.846 1.975 7.846 1.78 0 3.561-3.712 2.852-5.945-.751-2.367-2.655-3.117-4.827-1.901m11.881.417c-1.95 1.951-1.984 3.491-.13 5.988 1.152 1.55 1.806 1.719 3.25.839 2.219-1.352 2.882-5.002 1.263-6.953-1.532-1.847-2.436-1.821-4.383.126m-136.13 3.862c-1.498 1.105-1.671 1.707-.758 2.632 1.646 1.671 4.317.413 4.317-2.034 0-2.399-.912-2.552-3.559-.598m87 0c-1.498 1.105-1.671 1.707-.758 2.632 1.646 1.671 4.317.413 4.317-2.034 0-2.399-.912-2.552-3.559-.598m26 0c-1.498 1.105-1.671 1.707-.758 2.632 1.646 1.671 4.317.413 4.317-2.034 0-2.399-.912-2.552-3.559-.598" fill="#1976D2" fill-rule="evenodd"/></svg>